<svg width="189" height="70" viewBox="0 0 189 70" fill="none" xmlns="http://www.w3.org/2000/svg">
<path d="M95.5994 31.2083V22.2783L106.823 10.9722L106.581 10.7396C100.266 6.16969 92.5235 3.47656 84.1535 3.47656C62.8914 3.47656 45.6536 20.8439 45.6536 42.2658C45.6536 50.6987 48.3266 58.4999 52.8624 64.8621L53.1159 65.0833L64.4192 53.6951H70.3492L56.305 67.8449L57.8712 69.2017H57.8961L80.8173 46.106L95.6017 31.2106L95.5994 31.2083Z" fill="#EA651A"/>
<path d="M116.959 17.6475C116.959 17.8454 117.037 18.0353 117.177 18.1758L128.221 29.3047L115.322 42.3018L108.591 49.084L88.9773 68.8447H59.2996L81.3474 46.6309L96.1316 31.7354C96.271 31.5949 96.3494 31.405 96.3494 31.207V22.5869L107.354 11.4971L116.959 1.81934V17.6475Z" stroke="#EA661B" stroke-width="1.5" stroke-linecap="round" stroke-linejoin="round"/>
<path d="M155.856 52.0771C155.856 51.8792 155.777 51.6893 155.638 51.5488L146.46 42.3018L120.74 16.3877V1.81934L161.968 43.3584L187.198 68.7793L163.042 68.7939L155.856 61.5547V52.0771Z" stroke="#EA661B" stroke-width="1.5" stroke-linecap="round" stroke-linejoin="round"/>
<path d="M142.17 43.3594L152.077 53.3398V62.8164C152.077 63.0143 152.155 63.2043 152.294 63.3447L157.709 68.7998H157.547L94.3188 68.8418L119.613 43.3594L130.89 31.9941L142.17 43.3594Z" stroke="#EA661B" stroke-width="1.5" stroke-linecap="round" stroke-linejoin="round"/>
<path d="M68.5464 54.4414L55.771 67.3105L54.2046 68.8877H50.3882L53.646 65.6055L64.73 54.4414H68.5464Z" stroke="#EA661B" stroke-width="1.5" stroke-linecap="round" stroke-linejoin="round"/>
<path d="M30.7896 19.4V3.1875H0.107728L0.0366734 42.4764H8.39133V44.6013H0.0320892L0.027505 46.89H8.39133V49.0149H0.0229209L0.0206288 51.3036H8.39133V53.4285H0.0160446L0 61.9305L7.0367 69.0135H30.7621V58.1167L26.4048 53.7308V23.8136L30.7896 19.4Z" fill="#EA651A"/>
</svg>
