<svg width="183" height="69" viewBox="0 0 183 69" fill="none" xmlns="http://www.w3.org/2000/svg">
<path d="M92.5518 30.8652V22.3199L103.292 11.5008L103.061 11.2782C97.0178 6.90523 89.6083 4.32812 81.599 4.32812C61.2528 4.32812 44.7576 20.9473 44.7576 41.4464C44.7576 49.5159 47.3155 56.981 51.6559 63.0692L51.8984 63.2809L62.7148 52.3833H68.3893L54.9501 65.9234L56.4489 67.2218H56.4727L78.4065 45.1211L92.5539 30.8673L92.5518 30.8652Z" stroke="#0C2027" stroke-width="1.5" stroke-linecap="round" stroke-linejoin="round"/>
<path d="M111.935 41.985L124.78 29.0427L113.708 17.8876V1L103.291 11.4961L92.5522 22.3173V30.8626L78.4048 45.1164L56.471 67.2149L56.0898 67.5968H86.5138L105.493 48.4747L111.935 41.985Z" fill="#0C2027"/>
<path d="M156.571 41.985L115.892 1V16.9776L140.712 41.985L149.495 50.8336V60.1993L156.792 67.5488L181.929 67.5335L156.571 41.985Z" stroke="#0C2027" stroke-width="1.5" stroke-linecap="round" stroke-linejoin="round"/>
<path d="M147.314 51.747L137.626 41.9863L126.323 30.5977L115.021 41.9863L89.6025 67.5959L151.832 67.5544H153.71L147.314 61.1105V51.747Z" fill="#0C2027"/>
<path d="M62.7135 52.3789L51.8972 63.2743L47.5654 67.6386H53.24L54.9489 65.9169L68.3881 52.3789H62.7135Z" fill="#0C2027"/>
<path d="M30.5345 19.5649V4.05078H1.17438L1.10638 41.6471H9.10112V43.6805H1.102L1.09761 45.8706H9.10112V47.904H1.09322L1.09103 50.0941H9.10112V52.1274H1.08664L1.07129 60.2631L7.80485 67.041H30.5081V56.6137L26.3386 52.4167V23.7884L30.5345 19.5649Z" stroke="#0C2027" stroke-width="1.5" stroke-linecap="round" stroke-linejoin="round"/>
</svg>
